<svg version="1.1" xmlns="http://www.w3.org/2000/svg" xmlns:xlink="http://www.w3.org/1999/xlink" width="1546" height="915"><defs><clipPath id="ZkhacaWyttFA"><path fill="none" stroke="none" d=" M 0 0 L 1546 0 L 1546 915 L 0 915 L 0 0 Z"/></clipPath></defs><g transform="scale(1,1)" clip-path="url(#ZkhacaWyttFA)"><g><rect fill="rgb(255,255,255)" stroke="none" x="0" y="0" width="1546" height="915" fill-opacity="1"/><path fill="rgb(0,100,0)" stroke="none" paint-order="stroke fill markers" d=" M 176.2499999999999 693.0000000000001 C 176.2499999999999 674.8756053939034 171.32421666578466 657.0919646147981 161.99929257125427 641.5504244572476 L 76.24999999999989 693.0000000000001 Z" fill-opacity="0.09803921568627451"/><path fill="none" stroke="rgb(0,100,0)" paint-order="fill stroke markers" d=" M 176.2499999999999 693.0000000000001 C 176.2499999999999 674.8756053939034 171.32421666578466 657.0919646147981 161.99929257125427 641.5504244572476 L 76.24999999999989 693.0000000000001 Z" stroke-opacity="0.6980392156862745" stroke-linecap="round" stroke-linejoin="round" stroke-miterlimit="10" stroke-width="2.5"/><path fill="rgb(0,100,0)" stroke="none" paint-order="stroke fill markers" fill-rule="evenodd" d=" M 161.99929257125427 641.5504244572476 L 172.53055244636175 652.1498968706723 L 164.06461702328534 656.3487583130518 Z" fill-opacity="0.6980392156862745"/><path fill="rgb(0,0,0)" stroke="none" paint-order="stroke fill markers" d=" M 920 186.7500000000009 L 890.4164940629172 195.7536757199826 L 892.9889728400549 200.04114034854533 L 74.96376061143107 690.8562676857188 C 73.779809946534 691.566638084657 73.3958972867803 693.1022887236718 74.10626768571854 694.2862393885689 C 74.57501474572815 695.0674844885849 75.40310452356785 695.500377820105 76.25237076714208 695.500377820105 C 76.69013894302688 695.500377820105 77.13353382368767 695.3853556532101 77.5362393885687 695.1437323142815 L 895.5614516171925 204.32860497710803 L 898.1339303943302 208.61606960567076 L 920 186.7500000000009 Z" fill-opacity="0.6980392156862745"/><path fill="rgb(0,0,0)" stroke="none" paint-order="stroke fill markers" d=" M 1399.25 686.2500000000001 L 1399.25 690.7500000000001 L 76.24999999999989 690.7500000000001 C 75.0073593128806 690.7500000000001 73.99999999999989 691.7573593128808 73.99999999999989 693.0000000000001 C 73.99999999999989 694.2426406871194 75.0073593128806 695.2500000000001 76.24999999999989 695.2500000000001 L 1399.25 695.2500000000001 L 1399.25 699.7500000000001 L 1426.25 693.0000000000001 L 1399.25 686.2500000000001 Z" fill-opacity="0.6980392156862745"/><path fill="rgb(0,0,0)" stroke="none" paint-order="stroke fill markers" d=" M 920 184.2500000000009 C 919.3601942058614 184.2500000000009 918.7203884117226 184.49407768234548 918.2322330470336 184.98223304703458 C 917.2559223176554 185.95854377641277 917.2559223176555 187.54145622358914 918.2322330470337 188.5177669529673 L 1403.2690296114372 673.5545635173701 L 1403.2690296114374 673.5545635173701 L 1399.7334957055045 677.0900974233028 L 1426.2499999999998 693 L 1426.25 693 L 1410.3400974233027 666.4834957055047 L 1406.8045635173698 670.0190296114374 L 1406.80456351737 670.0190296114374 L 921.7677669529663 184.98223304703453 C 921.2796115882772 184.49407768234545 920.6398057941386 184.2500000000009 920 184.2500000000009 Z" fill-opacity="0.6980392156862745"/><g transform="scale(67,67)"><g transform="translate(10.417910447761194,11.72758208955224)"><path fill="rgb(0,0,0)" stroke="none" paint-order="stroke fill markers" d=" M 0.374 -0.077 Q 0.331 0.006 0.225 0.006 Q 0.195 0.006 0.165 0.0015 Q 0.135 -0.003 0.10300000000000001 -0.0145 Q 0.07100000000000001 -0.026000000000000002 0.051500000000000004 -0.05 Q 0.032 -0.074 0.032 -0.108 Q 0.032 -0.251 0.357 -0.265 L 0.357 -0.299 Q 0.357 -0.417 0.247 -0.417 Q 0.20800000000000002 -0.417 0.17500000000000002 -0.41000000000000003 Q 0.197 -0.395 0.197 -0.361 Q 0.197 -0.331 0.178 -0.3145 Q 0.159 -0.298 0.134 -0.298 Q 0.111 -0.298 0.0915 -0.3145 Q 0.07200000000000001 -0.331 0.07200000000000001 -0.361 Q 0.07200000000000001 -0.453 0.251 -0.453 Q 0.359 -0.453 0.41500000000000004 -0.41100000000000003 Q 0.47100000000000003 -0.369 0.47100000000000003 -0.299 L 0.47100000000000003 -0.084 Q 0.47100000000000003 -0.07 0.47300000000000003 -0.064 Q 0.47500000000000003 -0.058 0.489 -0.0525 Q 0.503 -0.047 0.532 -0.047 Q 0.541 -0.047 0.545 -0.046 Q 0.549 -0.045 0.5535 -0.04 Q 0.558 -0.035 0.558 -0.024 Q 0.558 -0.013000000000000001 0.5535 -0.0075 Q 0.549 -0.002 0.5435 -0.001 Q 0.538 0 0.526 0 L 0.47800000000000004 0 Q 0.441 0 0.418 -0.007 Q 0.395 -0.014 0.3865 -0.028 Q 0.378 -0.042 0.376 -0.051500000000000004 Q 0.374 -0.061 0.374 -0.077 M 0.357 -0.234 Q 0.335 -0.233 0.3155 -0.2305 Q 0.296 -0.228 0.263 -0.2195 Q 0.23 -0.211 0.20700000000000002 -0.199 Q 0.184 -0.187 0.1665 -0.1635 Q 0.149 -0.14 0.149 -0.109 Q 0.149 -0.076 0.17550000000000002 -0.053 Q 0.202 -0.03 0.24 -0.03 Q 0.253 -0.03 0.2695 -0.034 Q 0.28600000000000003 -0.038 0.3075 -0.048 Q 0.329 -0.058 0.343 -0.082 Q 0.357 -0.106 0.357 -0.139 L 0.357 -0.234 Z" fill-opacity="1"/></g></g><g transform="scale(67,67)"><g transform="translate(3.925373134328358,9.813402985074628)"><path fill="rgb(0,0,0)" stroke="none" paint-order="stroke fill markers" d=" M 0.455 -0.5 L 0.455 -0.5 Q 0.455 -0.34700000000000003 0.377 -0.19 Q 0.307 -0.05 0.222 -0.005 Q 0.191 0.011 0.162 0.011 Q 0.08 0.011 0.052000000000000005 -0.101 Q 0.042 -0.14300000000000002 0.042 -0.194 Q 0.042 -0.35100000000000003 0.122 -0.509 Q 0.192 -0.646 0.277 -0.6900000000000001 Q 0.307 -0.705 0.335 -0.705 Q 0.422 -0.705 0.447 -0.578 Q 0.455 -0.54 0.455 -0.5 M 0.148 -0.363 L 0.148 -0.363 L 0.357 -0.363 Q 0.389 -0.495 0.389 -0.562 Q 0.389 -0.675 0.342 -0.682 Q 0.338 -0.683 0.334 -0.683 Q 0.28300000000000003 -0.683 0.225 -0.578 Q 0.187 -0.511 0.149 -0.368 Q 0.149 -0.365 0.148 -0.363 M 0.34800000000000003 -0.331 L 0.14 -0.331 Q 0.108 -0.21 0.108 -0.133 Q 0.108 -0.013000000000000001 0.162 -0.011 Q 0.218 -0.011 0.278 -0.128 Q 0.317 -0.202 0.34800000000000003 -0.331 Z" fill-opacity="1"/></g></g><g transform="scale(67,67)"><g transform="translate(16.44776119402985,4.395492537313433)"><path fill="rgb(0,0,0)" stroke="none" paint-order="stroke fill markers" d=" M 0.36 -0.40700000000000003 Q 0.334 -0.41300000000000003 0.295 -0.41300000000000003 Q 0.258 -0.41300000000000003 0.232 -0.398 Q 0.20600000000000002 -0.383 0.1935 -0.3645 Q 0.181 -0.34600000000000003 0.17450000000000002 -0.3155 Q 0.168 -0.28500000000000003 0.167 -0.2685 Q 0.166 -0.252 0.166 -0.227 Q 0.166 -0.034 0.305 -0.034 Q 0.396 -0.034 0.43 -0.116 Q 0.434 -0.126 0.4375 -0.1285 Q 0.441 -0.131 0.454 -0.131 Q 0.47800000000000004 -0.131 0.47800000000000004 -0.117 Q 0.47800000000000004 -0.111 0.47000000000000003 -0.0945 Q 0.462 -0.078 0.4435 -0.0535 Q 0.425 -0.029 0.3835 -0.0115 Q 0.342 0.006 0.28600000000000003 0.006 Q 0.17200000000000001 0.006 0.105 -0.0575 Q 0.038 -0.121 0.038 -0.222 Q 0.038 -0.318 0.1015 -0.3855 Q 0.165 -0.453 0.291 -0.453 Q 0.465 -0.453 0.465 -0.361 Q 0.465 -0.331 0.446 -0.3145 Q 0.427 -0.298 0.402 -0.298 Q 0.379 -0.298 0.3595 -0.3145 Q 0.34 -0.331 0.34 -0.361 Q 0.34 -0.389 0.36 -0.40700000000000003 Z" fill-opacity="1"/></g><g transform="translate(17.23653897180763,4.395492537313433)"><path fill="rgb(0,0,0)" stroke="none" paint-order="stroke fill markers" d=" M 0.687 -0.327 L 0.09 -0.327 Q 0.058 -0.327 0.056 -0.34700000000000003 Q 0.056 -0.367 0.089 -0.367 L 0.6880000000000001 -0.367 Q 0.72 -0.367 0.721 -0.34700000000000003 Q 0.721 -0.327 0.687 -0.327 M 0.6880000000000001 -0.133 L 0.089 -0.133 Q 0.057 -0.133 0.056 -0.153 Q 0.056 -0.17300000000000001 0.09 -0.17300000000000001 L 0.687 -0.17300000000000001 Q 0.719 -0.17300000000000001 0.721 -0.153 Q 0.721 -0.133 0.6880000000000001 -0.133 Z" fill-opacity="1"/></g><g transform="translate(18.292316749585407,4.395492537313433)"><path fill="rgb(0,0,0)" stroke="none" paint-order="stroke fill markers" d=" M 0.374 -0.077 Q 0.331 0.006 0.225 0.006 Q 0.195 0.006 0.165 0.0015 Q 0.135 -0.003 0.10300000000000001 -0.0145 Q 0.07100000000000001 -0.026000000000000002 0.051500000000000004 -0.05 Q 0.032 -0.074 0.032 -0.108 Q 0.032 -0.251 0.357 -0.265 L 0.357 -0.299 Q 0.357 -0.417 0.247 -0.417 Q 0.20800000000000002 -0.417 0.17500000000000002 -0.41000000000000003 Q 0.197 -0.395 0.197 -0.361 Q 0.197 -0.331 0.178 -0.3145 Q 0.159 -0.298 0.134 -0.298 Q 0.111 -0.298 0.0915 -0.3145 Q 0.07200000000000001 -0.331 0.07200000000000001 -0.361 Q 0.07200000000000001 -0.453 0.251 -0.453 Q 0.359 -0.453 0.41500000000000004 -0.41100000000000003 Q 0.47100000000000003 -0.369 0.47100000000000003 -0.299 L 0.47100000000000003 -0.084 Q 0.47100000000000003 -0.07 0.47300000000000003 -0.064 Q 0.47500000000000003 -0.058 0.489 -0.0525 Q 0.503 -0.047 0.532 -0.047 Q 0.541 -0.047 0.545 -0.046 Q 0.549 -0.045 0.5535 -0.04 Q 0.558 -0.035 0.558 -0.024 Q 0.558 -0.013000000000000001 0.5535 -0.0075 Q 0.549 -0.002 0.5435 -0.001 Q 0.538 0 0.526 0 L 0.47800000000000004 0 Q 0.441 0 0.418 -0.007 Q 0.395 -0.014 0.3865 -0.028 Q 0.378 -0.042 0.376 -0.051500000000000004 Q 0.374 -0.061 0.374 -0.077 M 0.357 -0.234 Q 0.335 -0.233 0.3155 -0.2305 Q 0.296 -0.228 0.263 -0.2195 Q 0.23 -0.211 0.20700000000000002 -0.199 Q 0.184 -0.187 0.1665 -0.1635 Q 0.149 -0.14 0.149 -0.109 Q 0.149 -0.076 0.17550000000000002 -0.053 Q 0.202 -0.03 0.24 -0.03 Q 0.253 -0.03 0.2695 -0.034 Q 0.28600000000000003 -0.038 0.3075 -0.048 Q 0.329 -0.058 0.343 -0.082 Q 0.357 -0.106 0.357 -0.139 L 0.357 -0.234 Z" fill-opacity="1"/></g><g transform="translate(19.07353897180763,4.395492537313433)"><path fill="rgb(0,0,0)" stroke="none" paint-order="stroke fill markers" d=" M 0.661 -0.23 L 0.116 -0.23 Q 0.084 -0.23 0.083 -0.25 Q 0.083 -0.27 0.116 -0.27 L 0.661 -0.27 Q 0.6930000000000001 -0.27 0.6940000000000001 -0.25 Q 0.6940000000000001 -0.23 0.661 -0.23 Z" fill-opacity="1"/></g><g transform="translate(20.07376119402985,4.395492537313433)"><path fill="rgb(0,0,0)" stroke="none" paint-order="stroke fill markers" d=" M 0.214 -0.401 Q 0.273 -0.45 0.361 -0.45 Q 0.46900000000000003 -0.45 0.5345 -0.387 Q 0.6 -0.324 0.6 -0.223 Q 0.6 -0.11900000000000001 0.53 -0.0565 Q 0.46 0.006 0.34800000000000003 0.006 Q 0.264 0.006 0.202 -0.056 L 0.153 0 L 0.106 0 L 0.106 -0.6 Q 0.106 -0.628 0.0955 -0.6335000000000001 Q 0.085 -0.639 0.037 -0.639 L 0.037 -0.686 L 0.214 -0.6940000000000001 L 0.214 -0.401 M 0.22 -0.099 Q 0.266 -0.03 0.339 -0.03 Q 0.40900000000000003 -0.03 0.446 -0.082 Q 0.47200000000000003 -0.121 0.47200000000000003 -0.223 Q 0.47200000000000003 -0.248 0.47150000000000003 -0.2625 Q 0.47100000000000003 -0.277 0.468 -0.303 Q 0.465 -0.329 0.457 -0.34550000000000003 Q 0.449 -0.362 0.436 -0.3795 Q 0.423 -0.397 0.401 -0.4055 Q 0.379 -0.41400000000000003 0.35000000000000003 -0.41400000000000003 Q 0.311 -0.41400000000000003 0.2765 -0.396 Q 0.242 -0.378 0.22 -0.35000000000000003 L 0.22 -0.099 Z" fill-opacity="1"/></g></g><g transform="scale(67,67)"><g transform="translate(5.91044776119403,5.664149253731344)"><path fill="rgb(0,0,0)" stroke="none" paint-order="stroke fill markers" d=" M 0.214 -0.401 Q 0.273 -0.45 0.361 -0.45 Q 0.46900000000000003 -0.45 0.5345 -0.387 Q 0.6 -0.324 0.6 -0.223 Q 0.6 -0.11900000000000001 0.53 -0.0565 Q 0.46 0.006 0.34800000000000003 0.006 Q 0.264 0.006 0.202 -0.056 L 0.153 0 L 0.106 0 L 0.106 -0.6 Q 0.106 -0.628 0.0955 -0.6335000000000001 Q 0.085 -0.639 0.037 -0.639 L 0.037 -0.686 L 0.214 -0.6940000000000001 L 0.214 -0.401 M 0.22 -0.099 Q 0.266 -0.03 0.339 -0.03 Q 0.40900000000000003 -0.03 0.446 -0.082 Q 0.47200000000000003 -0.121 0.47200000000000003 -0.223 Q 0.47200000000000003 -0.248 0.47150000000000003 -0.2625 Q 0.47100000000000003 -0.277 0.468 -0.303 Q 0.465 -0.329 0.457 -0.34550000000000003 Q 0.449 -0.362 0.436 -0.3795 Q 0.423 -0.397 0.401 -0.4055 Q 0.379 -0.41400000000000003 0.35000000000000003 -0.41400000000000003 Q 0.311 -0.41400000000000003 0.2765 -0.396 Q 0.242 -0.378 0.22 -0.35000000000000003 L 0.22 -0.099 Z" fill-opacity="1"/></g></g></g></g></svg>